<svg width="78" height="65" viewBox="0 0 78 65" fill="none" xmlns="http://www.w3.org/2000/svg">
<path d="M38.4777 18.7246C38.1124 16.6278 36.6266 13.9947 33.8011 11.8735C32.4127 10.8251 31 10.1425 29.6116 9.8499V8.8259C32.364 8.16762 35.0677 6.31467 36.7971 3.80343C37.6739 2.53562 38.2342 1.29219 38.4777 0H39.5008C39.9148 2.46248 41.8147 5.19314 44.3966 7.02171C45.6632 7.92381 46.9785 8.53333 48.3181 8.8259V9.8499C45.6145 10.4107 42.4724 12.8244 40.9135 15.2869C40.134 16.5303 39.6713 17.6762 39.5008 18.7246H38.4777Z" fill="#3C3547"/>
<path d="M72.2969 64.1432C71.4322 64.1432 70.6649 63.9421 69.9951 63.5398C69.3374 63.1375 68.8198 62.5768 68.4423 61.8575C68.0648 61.1261 67.876 60.2788 67.876 59.3158C67.876 58.3406 68.0587 57.4933 68.424 56.7741C68.8016 56.0548 69.3253 55.4941 69.9951 55.0918C70.6771 54.6895 71.4565 54.4884 72.3334 54.4884C73.2346 54.4884 73.9958 54.6895 74.6169 55.0918C75.2502 55.4941 75.7313 56.0244 76.0601 56.6827C76.4011 57.3288 76.5716 58.0419 76.5716 58.8221C76.5716 58.944 76.5716 59.072 76.5716 59.2061C76.5716 59.3402 76.5655 59.4926 76.5533 59.6632H69.0269V58.4747H75.0736C75.0371 57.6335 74.757 56.9752 74.2333 56.4998C73.7218 56.0244 73.0763 55.7867 72.2969 55.7867C71.7732 55.7867 71.286 55.9086 70.8354 56.1524C70.397 56.384 70.0438 56.7314 69.7759 57.1947C69.5079 57.6457 69.374 58.2126 69.374 58.8952V59.4072C69.374 60.163 69.5079 60.7969 69.7759 61.3089C70.056 61.8209 70.4153 62.2049 70.8537 62.4609C71.3043 62.7169 71.7854 62.8449 72.2969 62.8449C72.9423 62.8449 73.4721 62.7048 73.8862 62.4244C74.3124 62.1318 74.6169 61.7417 74.7996 61.2541H76.3158C76.1697 61.8027 75.9139 62.2964 75.5486 62.7352C75.1832 63.1741 74.7265 63.5215 74.1785 63.7775C73.6426 64.0213 73.0154 64.1432 72.2969 64.1432Z" fill="#3C3547"/>
<path d="M64.1921 63.9238V50.7581H65.7266V63.9238H64.1921Z" fill="#3C3547"/>
<path d="M57.0631 64.1432C56.3568 64.1432 55.7357 64.0031 55.1998 63.7227C54.6761 63.4423 54.2681 63.0095 53.9758 62.4244C53.6957 61.8393 53.5557 61.1078 53.5557 60.2301V54.7078H55.0902V60.0655C55.0902 60.9798 55.2911 61.6686 55.693 62.1318C56.0949 62.5951 56.6612 62.8267 57.392 62.8267C57.9035 62.8267 58.3663 62.7048 58.7803 62.461C59.1944 62.205 59.5171 61.8453 59.7485 61.3821C59.9921 60.9067 60.1139 60.3276 60.1139 59.645V54.7078H61.6484V63.9238H60.2601L60.1687 62.3147C59.8886 62.8876 59.4745 63.3387 58.9265 63.6678C58.3784 63.9848 57.7573 64.1432 57.0631 64.1432Z" fill="#3C3547"/>
<path d="M46.3224 64.1432C45.4333 64.1432 44.6539 63.936 43.984 63.5215C43.3142 63.0949 42.7966 62.5158 42.4313 61.7844C42.0659 61.0529 41.8832 60.224 41.8832 59.2975C41.8832 58.371 42.0659 57.5482 42.4313 56.8289C42.7966 56.0975 43.3142 55.5246 43.984 55.1101C44.6661 54.6956 45.4516 54.4884 46.3406 54.4884C47.0957 54.4884 47.7534 54.6408 48.3136 54.9455C48.886 55.2503 49.3244 55.6769 49.6289 56.2255V50.7581H51.1634V63.9238H49.775L49.6471 62.4061C49.4523 62.7109 49.2026 62.9973 48.8982 63.2655C48.5937 63.5215 48.2283 63.7349 47.8021 63.9055C47.3758 64.064 46.8826 64.1432 46.3224 64.1432ZM46.505 62.8084C47.114 62.8084 47.6498 62.6621 48.1126 62.3695C48.5754 62.0769 48.9347 61.6747 49.1904 61.1627C49.4462 60.6385 49.5741 60.0229 49.5741 59.3158C49.5741 58.6209 49.4462 58.0114 49.1904 57.4872C48.9347 56.963 48.5754 56.5547 48.1126 56.2621C47.6498 55.9695 47.114 55.8232 46.505 55.8232C45.9083 55.8232 45.3785 55.9695 44.9157 56.2621C44.4529 56.5547 44.0937 56.963 43.8379 57.4872C43.5821 58.0114 43.4543 58.6209 43.4543 59.3158C43.4543 60.0229 43.5821 60.6385 43.8379 61.1627C44.0937 61.6747 44.4529 62.0769 44.9157 62.3695C45.3785 62.6621 45.9083 62.8084 46.505 62.8084Z" fill="#3C3547"/>
<path d="M35.9213 64.1432C35.0566 64.1432 34.2893 63.9421 33.6195 63.5398C32.9618 63.1375 32.4442 62.5768 32.0667 61.8575C31.6892 61.1261 31.5004 60.2788 31.5004 59.3158C31.5004 58.3406 31.6831 57.4933 32.0484 56.7741C32.426 56.0548 32.9496 55.4941 33.6195 55.0918C34.3015 54.6895 35.0809 54.4884 35.9578 54.4884C36.859 54.4884 37.6202 54.6895 38.2413 55.0918C38.8746 55.4941 39.3557 56.0244 39.6845 56.6827C40.0255 57.3288 40.196 58.0419 40.196 58.8221C40.196 58.944 40.196 59.072 40.196 59.2061C40.196 59.3402 40.1899 59.4926 40.1777 59.6632H32.6513V58.4747H38.698C38.6615 57.6335 38.3814 56.9752 37.8577 56.4998C37.3462 56.0244 36.7007 55.7867 35.9213 55.7867C35.3976 55.7867 34.9104 55.9086 34.4598 56.1524C34.0214 56.384 33.6682 56.7314 33.4003 57.1947C33.1323 57.6457 32.9984 58.2126 32.9984 58.8952V59.4072C32.9984 60.163 33.1323 60.7969 33.4003 61.3089C33.6804 61.8209 34.0396 62.2049 34.4781 62.4609C34.9287 62.7169 35.4098 62.8449 35.9213 62.8449C36.5667 62.8449 37.0965 62.7048 37.5106 62.4244C37.9368 62.1318 38.2413 61.7417 38.424 61.2541H39.9402C39.7941 61.8027 39.5383 62.2964 39.173 62.7352C38.8076 63.1741 38.3509 63.5215 37.8029 63.7775C37.267 64.0213 36.6398 64.1432 35.9213 64.1432Z" fill="#3C3547"/>
<path d="M21.3763 63.9238V50.7581H22.9108V56.2621C23.2153 55.7135 23.6415 55.2808 24.1896 54.9638C24.7498 54.6468 25.3587 54.4884 26.0164 54.4884C26.7228 54.4884 27.3378 54.6347 27.8615 54.9272C28.3852 55.2076 28.7871 55.6404 29.0672 56.2255C29.3473 56.8107 29.4873 57.5482 29.4873 58.4381V63.9238H27.9711V58.6027C27.9711 57.6762 27.7762 56.9813 27.3865 56.5181C26.9968 56.0427 26.4305 55.8049 25.6876 55.8049C25.1639 55.8049 24.6889 55.9329 24.2627 56.1889C23.8486 56.4449 23.5198 56.8107 23.2762 57.2861C23.0326 57.7615 22.9108 58.3467 22.9108 59.0415V63.9238H21.3763Z" fill="#3C3547"/>
<path d="M15.069 64.1432C14.2043 64.1432 13.4248 63.9421 12.7306 63.5398C12.0486 63.1375 11.5128 62.5768 11.1231 61.8575C10.7333 61.1261 10.5385 60.2849 10.5385 59.3341C10.5385 58.3588 10.7333 57.5116 11.1231 56.7924C11.5128 56.0731 12.0486 55.5124 12.7306 55.1101C13.4248 54.6956 14.2043 54.4884 15.069 54.4884C16.165 54.4884 17.0784 54.7749 17.8092 55.3478C18.5399 55.9086 19.0027 56.6644 19.1975 57.6152H17.6265C17.5047 57.0423 17.2063 56.5973 16.7314 56.2804C16.2564 55.9634 15.6962 55.8049 15.0507 55.8049C14.527 55.8049 14.0399 55.939 13.5892 56.2072C13.1386 56.4632 12.7794 56.8533 12.5114 57.3775C12.2435 57.9017 12.1095 58.5478 12.1095 59.3158C12.1095 59.8888 12.1887 60.4008 12.347 60.8518C12.5053 61.2907 12.7185 61.6564 12.9864 61.9489C13.2543 62.2415 13.5649 62.467 13.9181 62.6255C14.2834 62.7718 14.661 62.8449 15.0507 62.8449C15.4891 62.8449 15.8849 62.7779 16.2381 62.6438C16.5913 62.4975 16.8897 62.2842 17.1332 62.0038C17.3768 61.7234 17.5412 61.3943 17.6265 61.0164H19.1975C19.0027 61.9428 18.5338 62.6987 17.7909 63.2838C17.0602 63.8568 16.1529 64.1432 15.069 64.1432Z" fill="#3C3547"/>
<path d="M5.22332 64.1432C4.45606 64.1432 3.78623 64.0152 3.21383 63.7592C2.65361 63.5032 2.20299 63.1497 1.86199 62.6987C1.53317 62.2354 1.33222 61.6929 1.25914 61.0712H2.8302C2.89109 61.3882 3.01897 61.6808 3.21383 61.9489C3.40869 62.2171 3.67053 62.4366 3.99936 62.6072C4.34036 62.7657 4.75444 62.8449 5.24159 62.8449C5.66784 62.8449 6.02102 62.784 6.30113 62.6621C6.58124 62.528 6.78828 62.3512 6.92225 62.1318C7.06839 61.9124 7.14147 61.6747 7.14147 61.4187C7.14147 61.0408 7.05013 60.7543 6.86744 60.5592C6.69694 60.3642 6.44119 60.2118 6.10018 60.1021C5.75918 59.9802 5.3451 59.8766 4.85796 59.7912C4.45606 59.7181 4.06025 59.6206 3.67053 59.4987C3.28081 59.3768 2.93372 59.2183 2.62925 59.0232C2.32478 58.816 2.08121 58.5661 1.89853 58.2735C1.72802 57.9809 1.64277 57.6213 1.64277 57.1947C1.64277 56.6705 1.77674 56.2072 2.04467 55.8049C2.3126 55.3905 2.69623 55.0674 3.19556 54.8358C3.70707 54.6042 4.29773 54.4884 4.96756 54.4884C5.95404 54.4884 6.75175 54.7261 7.36068 55.2015C7.96962 55.6769 8.32889 56.3657 8.4385 57.2678H6.92225C6.86135 56.8046 6.66041 56.4449 6.3194 56.1889C5.99058 55.9208 5.53387 55.7867 4.9493 55.7867C4.3769 55.7867 3.93846 55.9025 3.63399 56.1341C3.34171 56.3657 3.19556 56.6705 3.19556 57.0484C3.19556 57.2922 3.27472 57.5116 3.43305 57.7067C3.60355 57.8895 3.84712 58.048 4.16377 58.1821C4.49259 58.3162 4.89449 58.4259 5.36946 58.5112C5.9784 58.6209 6.53253 58.7672 7.03186 58.9501C7.53118 59.1329 7.93308 59.4072 8.23755 59.7729C8.5542 60.1265 8.71252 60.6324 8.71252 61.2907C8.71252 61.8636 8.56638 62.3634 8.27409 62.7901C7.99398 63.2168 7.59208 63.552 7.06839 63.7958C6.54471 64.0274 5.92968 64.1432 5.22332 64.1432Z" fill="#3C3547"/>
<path d="M72.4517 45.0956C71.6845 45.0956 71.0512 44.9737 70.5518 44.7299C70.0525 44.4739 69.6811 44.1387 69.4375 43.7242C69.2061 43.2975 69.0904 42.8282 69.0904 42.3162C69.0904 41.7554 69.2304 41.2617 69.5106 40.8351C69.8028 40.4084 70.2352 40.0731 70.8076 39.8293C71.3922 39.5855 72.1229 39.4636 72.9998 39.4636H75.2833C75.2833 39.0126 75.2224 38.6408 75.1006 38.3482C74.9788 38.0434 74.79 37.8179 74.5343 37.6716C74.2785 37.5253 73.9375 37.4522 73.5113 37.4522C73.0485 37.4522 72.6527 37.5558 72.3238 37.7631C72.0072 37.9581 71.8123 38.2629 71.7393 38.6773H69.3461C69.407 38.0191 69.6202 37.4522 69.9855 36.9768C70.3631 36.4891 70.8563 36.1112 71.4652 35.8431C72.0864 35.5749 72.7745 35.4408 73.5295 35.4408C74.3942 35.4408 75.1432 35.5871 75.7765 35.8796C76.4098 36.1722 76.8969 36.5928 77.238 37.1413C77.579 37.6899 77.7495 38.3665 77.7495 39.1711V44.8762H75.6669L75.3929 43.4682C75.2589 43.712 75.1006 43.9314 74.9179 44.1265C74.7352 44.3215 74.5221 44.4922 74.2785 44.6385C74.0349 44.7848 73.7609 44.8945 73.4565 44.9676C73.152 45.053 72.8171 45.0956 72.4517 45.0956ZM73.0363 43.1939C73.3529 43.1939 73.6331 43.1391 73.8766 43.0293C74.1324 42.9074 74.3516 42.749 74.5343 42.5539C74.717 42.3467 74.857 42.1151 74.9544 41.8591C75.0641 41.5909 75.1371 41.3044 75.1737 40.9996V40.9813H73.292C72.9145 40.9813 72.6039 41.0301 72.3604 41.1276C72.129 41.213 71.9585 41.341 71.8489 41.5116C71.7393 41.6823 71.6845 41.8773 71.6845 42.0968C71.6845 42.3406 71.7393 42.5417 71.8489 42.7002C71.9585 42.8587 72.1168 42.9806 72.3238 43.0659C72.5309 43.1512 72.7684 43.1939 73.0363 43.1939Z" fill="#3C3547"/>
<path d="M62.428 49.1185C61.5511 49.1185 60.7838 49.0088 60.1262 48.7893C59.4685 48.5821 58.957 48.2591 58.5917 47.8202C58.2385 47.3935 58.0619 46.8632 58.0619 46.2293C58.0619 45.8027 58.1715 45.4004 58.3907 45.0225C58.6099 44.6446 58.9266 44.3032 59.3407 43.9985C59.7669 43.6815 60.2967 43.4133 60.93 43.1939L61.8616 44.4008C61.3014 44.5836 60.8934 44.8091 60.6377 45.0773C60.3941 45.3577 60.2723 45.6564 60.2723 45.9733C60.2723 46.2537 60.3637 46.4914 60.5463 46.6865C60.7412 46.8815 60.997 47.0217 61.3136 47.1071C61.6424 47.2046 62.0078 47.2533 62.4097 47.2533C62.7994 47.2533 63.1343 47.2046 63.4144 47.1071C63.7067 47.0095 63.932 46.8632 64.0904 46.6682C64.2609 46.4853 64.3461 46.2659 64.3461 46.0099C64.3461 45.6808 64.2304 45.4126 63.999 45.2053C63.7676 44.9981 63.3048 44.8701 62.6106 44.8213C61.9895 44.7726 61.4354 44.7055 60.9482 44.6202C60.4733 44.5227 60.0531 44.413 59.6877 44.2911C59.3224 44.157 59.0118 44.0107 58.7561 43.8522C58.5125 43.6937 58.3116 43.5352 58.1532 43.3768V42.9562L60.1079 40.8533L61.8799 41.4202L59.5781 43.6876L60.2723 42.4808C60.4063 42.5539 60.5342 42.6271 60.656 42.7002C60.7899 42.7611 60.9543 42.8221 61.1492 42.8831C61.3441 42.9318 61.5998 42.9806 61.9165 43.0293C62.2331 43.0781 62.635 43.1208 63.1221 43.1573C63.9259 43.2305 64.5836 43.3829 65.0951 43.6145C65.6188 43.8461 66.0024 44.157 66.246 44.5471C66.4896 44.925 66.6113 45.3943 66.6113 45.9551C66.6113 46.5036 66.4591 47.0156 66.1546 47.4911C65.8624 47.9787 65.4057 48.3688 64.7845 48.6613C64.1634 48.9661 63.3779 49.1185 62.428 49.1185ZM62.428 42.1516C61.6607 42.1516 60.997 42.0053 60.4367 41.7128C59.8887 41.408 59.4624 41.0057 59.158 40.5059C58.8657 39.9939 58.7195 39.4271 58.7195 38.8053C58.7195 38.1836 58.8657 37.6229 59.158 37.1231C59.4624 36.6111 59.8887 36.2027 60.4367 35.8979C60.997 35.5931 61.6607 35.4408 62.428 35.4408C63.2074 35.4408 63.8711 35.5931 64.4192 35.8979C64.9794 36.2027 65.4057 36.6111 65.6979 37.1231C65.9902 37.6229 66.1364 38.1836 66.1364 38.8053C66.1364 39.4271 65.9902 39.9939 65.6979 40.5059C65.4057 41.0057 64.9794 41.408 64.4192 41.7128C63.8711 42.0053 63.2074 42.1516 62.428 42.1516ZM62.428 40.2682C62.9029 40.2682 63.2866 40.1463 63.5788 39.9025C63.8711 39.6587 64.0173 39.2991 64.0173 38.8236C64.0173 38.3482 63.8711 37.9886 63.5788 37.7448C63.2866 37.4888 62.9029 37.3608 62.428 37.3608C61.9652 37.3608 61.5815 37.4888 61.2771 37.7448C60.9848 37.9886 60.8386 38.3482 60.8386 38.8236C60.8386 39.2991 60.9848 39.6587 61.2771 39.9025C61.5815 40.1463 61.9652 40.2682 62.428 40.2682ZM63.9625 37.4156L63.5606 35.6602H67.3421V37.1231L63.9625 37.4156Z" fill="#3C3547"/>
<path d="M52.2504 45.0956C51.3735 45.0956 50.5819 44.8945 49.8755 44.4922C49.1813 44.0777 48.6272 43.5109 48.2131 42.7916C47.8112 42.0602 47.6103 41.2251 47.6103 40.2865C47.6103 39.3234 47.8112 38.4823 48.2131 37.7631C48.6272 37.0316 49.1874 36.4648 49.8938 36.0625C50.6001 35.648 51.3918 35.4408 52.2686 35.4408C53.1577 35.4408 53.9493 35.648 54.6435 36.0625C55.3498 36.4648 55.904 37.0316 56.3059 37.7631C56.7199 38.4823 56.927 39.3173 56.927 40.2682C56.927 41.2191 56.7199 42.0602 56.3059 42.7916C55.904 43.5109 55.3498 44.0777 54.6435 44.4922C53.9371 44.8945 53.1394 45.0956 52.2504 45.0956ZM52.2504 42.9562C52.6644 42.9562 53.0298 42.8587 53.3464 42.6636C53.6753 42.4686 53.931 42.1699 54.1137 41.7676C54.3086 41.3653 54.406 40.8655 54.406 40.2682C54.406 39.6709 54.3086 39.1771 54.1137 38.7871C53.931 38.3848 53.6753 38.0861 53.3464 37.8911C53.0298 37.6838 52.6705 37.5802 52.2686 37.5802C51.8789 37.5802 51.5196 37.6838 51.1908 37.8911C50.862 38.0861 50.6001 38.3848 50.4053 38.7871C50.2226 39.1771 50.1313 39.6709 50.1313 40.2682C50.1313 40.8655 50.2226 41.3653 50.4053 41.7676C50.6001 42.1699 50.8559 42.4686 51.1725 42.6636C51.5014 42.8587 51.8606 42.9562 52.2504 42.9562Z" fill="#3C3547"/>
<path d="M38.8316 48.899L41.0603 43.8522H40.5123L36.8221 35.6602H39.5075L42.1381 41.603L44.513 35.6602H47.1253L41.4439 48.899H38.8316Z" fill="#3C3547"/>
<path d="M28.3683 44.8762V35.6602H31.1085V44.8762H28.3683ZM29.7384 34.5996C29.2512 34.5996 28.8554 34.4594 28.5509 34.179C28.2465 33.8987 28.0942 33.5451 28.0942 33.1185C28.0942 32.6796 28.2465 32.32 28.5509 32.0396C28.8554 31.7592 29.2512 31.619 29.7384 31.619C30.2377 31.619 30.6396 31.7592 30.9441 32.0396C31.2607 32.32 31.419 32.6796 31.419 33.1185C31.419 33.5451 31.2607 33.8987 30.9441 34.179C30.6396 34.4594 30.2377 34.5996 29.7384 34.5996Z" fill="#3C3547"/>
<path d="M23.2117 44.8762V31.7105H25.9519V44.8762H23.2117Z" fill="#3C3547"/>
<path d="M15.4357 45.0956C14.6685 45.0956 14.0291 44.9737 13.5176 44.7299C13.0183 44.4861 12.6468 44.157 12.4032 43.7425C12.1718 43.3158 12.0562 42.8465 12.0562 42.3345C12.0562 41.7859 12.1901 41.3044 12.458 40.8899C12.7382 40.4632 13.1705 40.128 13.7551 39.8842C14.3397 39.6282 15.0765 39.5002 15.9655 39.5002H18.1942C18.1942 39.0857 18.1394 38.7444 18.0298 38.4762C17.9324 38.208 17.768 38.0069 17.5366 37.8728C17.3052 37.7387 16.9885 37.6716 16.5866 37.6716C16.1604 37.6716 15.8011 37.757 15.5088 37.9276C15.2165 38.0983 15.0338 38.3665 14.9608 38.7322H12.3302C12.3911 38.0739 12.6042 37.501 12.9696 37.0133C13.3471 36.5257 13.8464 36.1417 14.4675 35.8613C15.0887 35.581 15.8011 35.4408 16.6049 35.4408C17.4818 35.4408 18.2429 35.5871 18.8884 35.8796C19.5339 36.16 20.0332 36.5745 20.3864 37.1231C20.7518 37.6716 20.9344 38.3543 20.9344 39.1711V44.8762H18.6509L18.3221 43.5413C18.1881 43.773 18.0298 43.9863 17.8471 44.1813C17.6645 44.3642 17.4513 44.5288 17.2078 44.6751C16.9642 44.8091 16.6962 44.9128 16.404 44.9859C16.1117 45.0591 15.7889 45.0956 15.4357 45.0956ZM16.1117 43.0111C16.404 43.0111 16.6597 42.9623 16.8789 42.8648C17.0981 42.7672 17.2869 42.6331 17.4452 42.4625C17.6036 42.2918 17.7314 42.0968 17.8289 41.8773C17.9385 41.6457 18.0176 41.3958 18.0664 41.1276V41.1093H16.2943C15.9899 41.1093 15.7341 41.152 15.5271 41.2373C15.3322 41.3105 15.1861 41.4202 15.0887 41.5665C14.9912 41.7128 14.9425 41.8834 14.9425 42.0785C14.9425 42.2857 14.9912 42.4625 15.0887 42.6088C15.1983 42.7429 15.3383 42.8465 15.5088 42.9196C15.6915 42.9806 15.8924 43.0111 16.1117 43.0111Z" fill="#3C3547"/>
<path d="M5.78863 45.0956C5.33802 45.0956 4.93003 45.0408 4.56467 44.9311C4.21149 44.8213 3.89484 44.669 3.61473 44.4739C3.3468 44.2667 3.1154 44.035 2.92054 43.779L2.60998 44.8762H0.180328V31.7105H2.92054V36.8671C3.21283 36.4526 3.59037 36.1112 4.05316 35.8431C4.51595 35.5749 5.08835 35.4408 5.77036 35.4408C6.61069 35.4408 7.35969 35.6541 8.01734 36.0808C8.68717 36.4952 9.21694 37.0682 9.60666 37.7996C9.99638 38.5189 10.1912 39.3478 10.1912 40.2865C10.1912 41.2008 9.99638 42.0236 9.60666 42.755C9.21694 43.4865 8.69326 44.0594 8.0356 44.4739C7.37795 44.8884 6.62896 45.0956 5.78863 45.0956ZM5.11271 42.7002C5.55114 42.7002 5.94086 42.5966 6.28187 42.3893C6.63505 42.1821 6.90907 41.9017 7.10393 41.5482C7.29879 41.1825 7.39622 40.7619 7.39622 40.2865C7.39622 39.8111 7.29879 39.3905 7.10393 39.0248C6.90907 38.6469 6.63505 38.3543 6.28187 38.1471C5.94086 37.9398 5.55114 37.8362 5.11271 37.8362C4.6621 37.8362 4.2602 37.9459 3.90702 38.1653C3.56601 38.3726 3.29808 38.6591 3.10322 39.0248C2.90836 39.3783 2.81093 39.7989 2.81093 40.2865C2.81093 40.7497 2.90836 41.1642 3.10322 41.5299C3.29808 41.8956 3.56601 42.1821 3.90702 42.3893C4.2602 42.5966 4.6621 42.7002 5.11271 42.7002Z" fill="#3C3547"/>
</svg>
